<svg xmlns="http://www.w3.org/2000/svg" viewBox="0 0 36.88 39.65"><defs><style>.cls-1{fill:#fff;}</style></defs><g id="Capa_2" data-name="Capa 2"><g id="Capa_1-2" data-name="Capa 1"><g id="logo"><g id="luna"><path class="cls-1" d="M36.14,26.54a.42.42,0,0,1,.72.42A19,19,0,1,1,15.12,2.11a.42.42,0,0,1,.32.77,15.84,15.84,0,1,0,20.7,23.66Z"/><path class="cls-1" d="M27.57,2.15c-1.24,0-1.57.2-1.91,1.39a.08.08,0,0,1-.16,0c0-1.24-.2-1.57-1.39-1.91a.08.08,0,0,1,0-.16c1.23,0,1.56-.2,1.9-1.39a.08.08,0,0,1,.16,0c0,1.24.2,1.57,1.39,1.91A.08.08,0,0,1,27.57,2.15Z"/><path class="cls-1" d="M35.51,10.77c-2.5-.19-3.18.27-4,2.64a.16.16,0,0,1-.31-.07c.18-2.49-.27-3.18-2.64-4a.16.16,0,0,1,.06-.31c2.49.18,3.18-.28,4-2.64a.16.16,0,0,1,.31.06c-.18,2.49.27,3.18,2.64,4A.16.16,0,0,1,35.51,10.77Z"/><path class="cls-1" d="M24.27,13.24c-2.42.62-2.93,1.26-2.93,3.76A.16.16,0,0,1,21,17c-.61-2.42-1.26-2.93-3.76-2.93a.16.16,0,0,1,0-.32c2.42-.61,2.93-1.26,2.94-3.76a.16.16,0,0,1,.31,0c.62,2.42,1.26,2.93,3.76,2.94A.16.16,0,0,1,24.27,13.24Z"/></g></g></g></g></svg>