<svg xmlns="http://www.w3.org/2000/svg" viewBox="0 0 97.3 97.3"><defs><style>.cls-1{fill:#f1f1f1;}.cls-2{fill:#cbcbcb;}.cls-3{fill:#d8d8d8;}.cls-4{fill:#bcbcbc;}</style></defs><g id="Capa_2" data-name="Capa 2"><g id="Capa_1-2" data-name="Capa 1"><circle class="cls-1" cx="48.65" cy="48.65" r="48.64" transform="translate(-15.84 72.62) rotate(-65.39)"/><path class="cls-2" d="M67,65.18A48.64,48.64,0,0,1,6.78,32,49.28,49.28,0,0,1,5.5,26.24,48.63,48.63,0,1,0,96.65,40.87,48.5,48.5,0,0,1,67,65.18Z"/><path class="cls-3" d="M64.26,27.13A1.57,1.57,0,0,1,66.2,28.2a1.55,1.55,0,0,1-1.07,1.94,1.57,1.57,0,1,1-.87-3Z"/><path class="cls-3" d="M80.7,33.43a4.15,4.15,0,1,1-2.83,5.14A4.15,4.15,0,0,1,80.7,33.43Z"/><path class="cls-3" d="M67.17,49a5.64,5.64,0,1,1-3.84,7A5.64,5.64,0,0,1,67.17,49Z"/><path class="cls-3" d="M35.86,23.31a7.71,7.71,0,1,1-5.26,9.56A7.71,7.71,0,0,1,35.86,23.31Z"/><path class="cls-3" d="M31.83,51.63a9.82,9.82,0,1,1-6.69,12.16A9.81,9.81,0,0,1,31.83,51.63Z"/><ellipse class="cls-3" cx="66.28" cy="13.59" rx="7.28" ry="9.73" transform="translate(23.8 66.25) rotate(-62.69)"/><path class="cls-3" d="M51.67,52.92A1.55,1.55,0,0,1,53.61,54a1.57,1.57,0,0,1-3,.87A1.55,1.55,0,0,1,51.67,52.92Z"/><path class="cls-3" d="M21.73,24.61a1.57,1.57,0,0,1,1.94,1.07,1.55,1.55,0,0,1-1.07,1.94,1.57,1.57,0,1,1-.87-3Z"/><path class="cls-3" d="M48.13,6.29a2.19,2.19,0,0,1,2.34,1.93,2.45,2.45,0,0,1-4.76-.12A2.17,2.17,0,0,1,48.13,6.29Z"/><path class="cls-4" d="M43.77,75.8a2.16,2.16,0,1,1-1.47,2.68A2.16,2.16,0,0,1,43.77,75.8Z"/><path class="cls-4" d="M9.45,50.87a2.61,2.61,0,1,1-1.78,3.24A2.62,2.62,0,0,1,9.45,50.87Z"/><path class="cls-4" d="M59.48,87.21a1.42,1.42,0,1,1-1,1.76A1.42,1.42,0,0,1,59.48,87.21Z"/><path class="cls-4" d="M20.64,71.41c2.24,1,3.42,3.26,2.62,5.13S20,79.15,17.74,78.19s-3.43-3.25-2.63-5.13S18.39,70.45,20.64,71.41Z"/><path class="cls-4" d="M80.86,67.79c2.77-2.66,6.36-3.41,8-1.68s.76,5.28-2,7.94-6.35,3.41-8,1.68S78.09,70.45,80.86,67.79Z"/></g></g></svg>